<svg id="emoticon-1star" xmlns="http://www.w3.org/2000/svg" xmlns:xlink="http://www.w3.org/1999/xlink" width="85" height="85" viewBox="0 0 85 85">
  <defs>
    <radialGradient id="radial-gradient" cx="0.5" cy="0.5" r="0.5" gradientUnits="objectBoundingBox">
      <stop offset="0" stop-color="#fdd835" stop-opacity="0"/>
      <stop offset="0.23" stop-color="#fdd835" stop-opacity="0.012"/>
      <stop offset="0.37" stop-color="#fdd835" stop-opacity="0.039"/>
      <stop offset="0.48" stop-color="#fdd835" stop-opacity="0.102"/>
      <stop offset="0.58" stop-color="#fdd835" stop-opacity="0.18"/>
      <stop offset="0.67" stop-color="#fdd835" stop-opacity="0.278"/>
      <stop offset="0.75" stop-color="#fdd835" stop-opacity="0.412"/>
      <stop offset="0.83" stop-color="#fdd835" stop-opacity="0.561"/>
      <stop offset="0.98" stop-color="#ffb664"/>
      <stop offset="1" stop-color="#ffb664"/>
    </radialGradient>
  </defs>
  <g id="Layer_2" data-name="Layer 2">
    <g id="OBJECTS">
      <circle id="Ellipse_373" data-name="Ellipse 373" cx="42.5" cy="42.5" r="42.5" fill="#fdd835"/>
      <circle id="Ellipse_374" data-name="Ellipse 374" cx="42.5" cy="42.5" r="42.5" fill="url(#radial-gradient)"/>
      <path id="Path_3893" data-name="Path 3893" d="M41.72,74.589a18.307,18.307,0,0,1,20.979,0" transform="translate(-9.679 -16.435)" fill="none" stroke="#212121" stroke-linecap="round" stroke-linejoin="round" stroke-width="3"/>
      <circle id="Ellipse_375" data-name="Ellipse 375" cx="7.36" cy="7.36" r="7.36" transform="translate(17.493 33.541)" fill="#212121"/>
      <circle id="Ellipse_376" data-name="Ellipse 376" cx="7.36" cy="7.36" r="7.36" transform="translate(52.849 33.541)" fill="#212121"/>
      <path id="Path_3894" data-name="Path 3894" d="M35.876,48.075a1.805,1.805,0,1,1-.531-1.279A1.813,1.813,0,0,1,35.876,48.075Z" transform="translate(-7.436 -10.669)" fill="#feeb98"/>
      <path id="Path_3895" data-name="Path 3895" d="M81.876,48.075a1.805,1.805,0,1,1-.531-1.279A1.813,1.813,0,0,1,81.876,48.075Z" transform="translate(-18.043 -10.669)" fill="#feeb98"/>
      <path id="Path_3896" data-name="Path 3896" d="M27.447,33.71a11.729,11.729,0,0,0-7.817,8.871" transform="translate(-4.532 -7.785)" fill="none" stroke="#212121" stroke-linecap="round" stroke-linejoin="round" stroke-width="3"/>
      <path id="Path_3897" data-name="Path 3897" d="M89.131,42.207A11.745,11.745,0,0,0,80.26,34.39" transform="translate(-18.535 -7.939)" fill="none" stroke="#212121" stroke-linecap="round" stroke-linejoin="round" stroke-width="3"/>
    </g>
  </g>
</svg>
