<svg id="emoticon-3stars" xmlns="http://www.w3.org/2000/svg" xmlns:xlink="http://www.w3.org/1999/xlink" width="85" height="85" viewBox="0 0 85 85">
  <defs>
    <radialGradient id="radial-gradient" cx="0.5" cy="0.5" r="0.5" gradientUnits="objectBoundingBox">
      <stop offset="0" stop-color="#fdd835" stop-opacity="0"/>
      <stop offset="0.23" stop-color="#fdd835" stop-opacity="0.012"/>
      <stop offset="0.37" stop-color="#fdd835" stop-opacity="0.039"/>
      <stop offset="0.48" stop-color="#fdd835" stop-opacity="0.102"/>
      <stop offset="0.58" stop-color="#fdd835" stop-opacity="0.18"/>
      <stop offset="0.67" stop-color="#fdd835" stop-opacity="0.278"/>
      <stop offset="0.75" stop-color="#fdd835" stop-opacity="0.412"/>
      <stop offset="0.83" stop-color="#fdd835" stop-opacity="0.561"/>
      <stop offset="0.98" stop-color="#ffb664"/>
      <stop offset="1" stop-color="#ffb664"/>
    </radialGradient>
  </defs>
  <g id="Layer_2" data-name="Layer 2">
    <g id="OBJECTS">
      <circle id="Ellipse_381" data-name="Ellipse 381" cx="42.5" cy="42.5" r="42.5" fill="#fdd835"/>
      <circle id="Ellipse_382" data-name="Ellipse 382" cx="42.5" cy="42.5" r="42.5" fill="url(#radial-gradient)"/>
      <path id="Path_3900" data-name="Path 3900" d="M41.72,70.47s10.071,6.972,20.917,0" transform="translate(-9.679 -16.246)" fill="none" stroke="#212121" stroke-linecap="round" stroke-miterlimit="10" stroke-width="3"/>
      <g id="Group_4233" data-name="Group 4233">
        <g id="Group_4231" data-name="Group 4231">
          <circle id="Ellipse_383" data-name="Ellipse 383" cx="7.36" cy="7.36" r="7.36" transform="translate(17.463 33.541)" fill="#212121"/>
          <path id="Path_3901" data-name="Path 3901" d="M35.836,48.075A1.805,1.805,0,1,1,35.3,46.8,1.813,1.813,0,0,1,35.836,48.075Z" transform="translate(-7.427 -10.668)" fill="#feeb98"/>
        </g>
        <g id="Group_4232" data-name="Group 4232">
          <circle id="Ellipse_384" data-name="Ellipse 384" cx="7.36" cy="7.36" r="7.36" transform="translate(52.818 33.541)" fill="#212121"/>
          <path id="Path_3902" data-name="Path 3902" d="M81.836,48.075A1.805,1.805,0,1,1,81.3,46.8,1.813,1.813,0,0,1,81.836,48.075Z" transform="translate(-18.033 -10.668)" fill="#feeb98"/>
        </g>
      </g>
    </g>
  </g>
</svg>
