<svg xmlns="http://www.w3.org/2000/svg" viewBox="0 0 89.67 31.59"><g data-name="Layer 2"><path d="M88.46 31.08l-42.17.21v.05L.92 31.08c4.39-2.54 15.66-4.79 20.37-6.35 2.09-.7 5-1.78 6.78-3.25 2.54-2.2 4.5-7.45 4.72-11.6.14-2.55.5-3.69.24-6.48l-.12-1.08c-.11-.57-.24-1.31-.4-1.89h0c1.84.34 5.89 3.41 8.21 5.24s3.9 2.65 5.67 2.81a8.84 8.84 0 001 0c1.91 0 2.94-1 5.7-2.84a70.83 70.83 0 018.7-4.9 11.62 11.62 0 00-.27 1.2l-.06.35a18.8 18.8 0 00-.14 2c-.11 3.68.52 11.89 2.72 15.05a8.47 8.47 0 001.83 1.8l.44.32c3.2 2.27 9.35 4.45 12.55 5.75z" fill="#B6E0F8" stroke="#215182" stroke-miterlimit="10" stroke-width=".5" data-name="Layer 1"/></g></svg>