<svg xmlns="http://www.w3.org/2000/svg" viewBox="0 0 34.72 44.16"><g data-name="Layer 2"><path d="M.36 34.4c.4 2.34 3.08 2.6 3.28.48a31.86 31.86 0 011.67-7.16c.69-1.64 2.29-5.42 2.4-2.4a140.42 140.42 0 001.16 14.61c.62 3.26 4.05 2.76 3.82 1.36s-.42-7.3-.63-8.46 0-8.09.11-6.59 1.35 12.42 1.66 15.18 4.48 4 4.25-.31-.65-11-1-14.34 2.38-3 2.91-.72 1.64 8.85 2.3 11.38 4.32 2.47 3.87-.74c-.31-2.16-1.23-12.93-1.89-20.27l.06.08a71.06 71.06 0 014.91 5.4c1.4 1.68 4.49 2.54 5.16.6.27-.76-1.53-4-3-5.89S27.92 6.32 26 4.23a55.7 55.7 0 00-4-4L5.44.45C5 1.51 3.29 6.32 2.73 8.39c-.7 2.51-.23 7.24 0 8.87s-1 5.53-1.54 7A34.36 34.36 0 00.36 34.4z" fill="#B6E0F8" stroke="#215182" stroke-miterlimit="10" stroke-width=".5" data-name="Layer 1"/></g></svg>