<svg xmlns="http://www.w3.org/2000/svg" viewBox="0 0 34.7 43.71"><g data-name="Layer 2"><path d="M.27 22.05c.4 2 4.23.92 5.63-.76s2.64-5.29 4.43-5.24l.06-.05c-.66 7.34-1.58 18.09-1.88 20.24-.46 3.21 3.19 3.27 3.86.74s1.77-9.15 2.3-11.38 3.22-2.58 2.91.73-.72 10-.95 14.33 3.94 3.06 4.24.31 1.57-13.66 1.67-15.18.29 5.43.09 6.59-.38 7.06-.61 8.46 3.18 1.9 3.81-1.36A143.29 143.29 0 0027 24.87c.1-3 1.7.77 2.39 2.4a31.81 31.81 0 011.68 7.17c.2 2.12 2.88 1.85 3.27-.49a34.62 34.62 0 00-.86-10.15c-.56-1.46-1.82-5.35-1.54-7s.73-6.35 0-8.87C31.4 5.87 29.19.57 29.19.57L13.54.25c-.14.2-.43.83-.79 1.34a64.47 64.47 0 01-5 6.2c-1.94 2.07-3.12 6.07-4.64 8S.07 21.13.27 22.05z" fill="#B6E0F8" stroke="#215182" stroke-miterlimit="10" stroke-width=".5" data-name="Layer 1"/></g></svg>