<svg xmlns="http://www.w3.org/2000/svg" width="16" height="16">
    <path fill="none" d="M0 0h16v16H0z" />
    <path
        d="M9.286 11.429L11 9.857a.525.525 0 01.429-.143l.286.143 4 1.857c.286.143.286.286.286.571a3.622 3.622 0 01-1.143 2.571 4.092 4.092 0 01-3 1.143 8.7 8.7 0 01-4-1 18.727 18.727 0 01-4-2.857A24.333 24.333 0 011.714 9 19.747 19.747 0 01.286 5.857 8.791 8.791 0 010 3.143 3.754 3.754 0 011 1a4.344 4.344 0 012.714-1 .742.742 0 01.571.286l2.143 4a.5.5 0 00.143.286.525.525 0 01-.142.428L4.571 6.714a.638.638 0 000 .714 13.642 13.642 0 001.715 2.286 14.424 14.424 0 002.286 1.857c.285.143.571.143.714-.142z"
        fill="#336ca3" />
</svg>