<svg xmlns="http://www.w3.org/2000/svg" width="24.5" height="24">
    <defs>
        <style>.a{fill:none}.b{fill:#f8fbfc}</style>
    </defs>
    <path class="a" d="M0 0h24v24H0z" />
    <path class="a" d="M.5 0h24v24H.5z" />
    <g transform="translate(.5 1.2)">
        <path class="b"
            d="M22.8 11.064a10.8 10.8 0 1 0-21.6.072A2.361 2.361 0 0 0 0 13.2v2.4A2.407 2.407 0 0 0 2.4 18h1.2v-7.32a8.4 8.4 0 0 1 16.8 0v8.52h-9.6v2.4h9.6a2.407 2.407 0 0 0 2.4-2.4v-1.464a2.219 2.219 0 0 0 1.2-1.968v-2.76a2.21 2.21 0 0 0-1.2-1.944z" />
        <circle class="b" cx="1" cy="1" r="1" transform="translate(8 10.8)" />
        <circle class="b" cx="1" cy="1" r="1" transform="translate(15 10.8)" />
        <path class="b"
            d="M19.185 8.933a7.3 7.3 0 0 0-7.254-5.946 7.25 7.25 0 0 0-7.351 7.625 9.622 9.622 0 0 0 5.925-6.963 9.827 9.827 0 0 0 8.68 5.284z" />
    </g>
</svg>