<svg xmlns="http://www.w3.org/2000/svg" width="29.162" height="17.18" viewBox="0 0 29.162 17.18"><defs><style>.a{fill:none;stroke:#2c4a60;stroke-linecap:round;}</style></defs><g transform="translate(-14.546 -23.148)"><path d="M13.5.8l.149-.149a1.207,1.207,0,0,1,1.707,1.708L15.2,2.5a1.5,1.5,0,0,1-.059,2.059L4.854,14.854a.5.5,0,0,1-.233.131l-4,1a.5.5,0,0,1-.606-.606l1-4a.5.5,0,0,1,.131-.232L10.788,1.5a.5.5,0,0,0-.642.056L6.854,4.854a.5.5,0,0,1-.708-.708L9.44.854A1.5,1.5,0,0,1,11.5.8a1.5,1.5,0,0,1,2,0Z" transform="translate(28 22.855)"/><path class="a" d="M32.508,37.852a8.4,8.4,0,0,1-4.929,0c-2.341-.863-2.328-3.689-4.434-3.452s-3.437,3.452-3.437,3.452" transform="translate(-4.508 1.543)"/></g></svg>