<svg xmlns="http://www.w3.org/2000/svg" width="622.506" height="644.016" viewBox="0 0 622.506 644.016">
  <g id="Group_11674" data-name="Group 11674" transform="translate(-1114.218 -4590.349)">
    <g id="Group_11585" data-name="Group 11585" transform="translate(1024.218 4545.926)">
      <rect id="Rectangle_1835" data-name="Rectangle 1835" width="434.196" height="492.962" rx="49" transform="matrix(-0.866, -0.5, 0.5, -0.866, 466.025, 688.439)" fill="#215282" opacity="0.23"/>
      <path id="Path_3880" data-name="Path 3880" d="M61.73,0H367.4a61.73,61.73,0,0,1,61.73,61.73V387.189a61.73,61.73,0,0,1-61.73,61.73H61.73A61.73,61.73,0,0,1,0,387.189V61.73A61.73,61.73,0,0,1,61.73,0Z" transform="translate(90.813 359.435) rotate(-45)" fill="#215282"/>
    </g>
    <g id="Group_11586" data-name="Group 11586" transform="translate(624.436 4107.166)">
      <g id="Group_11570" data-name="Group 11570" transform="translate(745.714 751.077)">
        <path id="Path_4045" data-name="Path 4045" d="M147.4,148.342c-.675,9.189-.675,18.256-2.047,27.1-4.093,25.338-27.446,44.7-53.7,45.026-25.686.348-50.245-19.279-54.257-44.371a199.816,199.816,0,0,1-1.576-30.454c-.184-28.653,0-57.306,0-85.959,0-15.391,7.347-22.841,22.513-22.841q53.377,0,106.815.123A55.075,55.075,0,0,1,171.034,146.7C163.175,147.564,155.336,147.81,147.4,148.342ZM68.333,120.814V164.8c0,13.324,9.763,23.086,22.656,23.168,13.221,0,23.025-9.722,23.168-23.393V129.779c0-10.561,3.807-14.327,14.163-14.327h20.937c6.508,0,13.16.594,19.484-.532,12.137-2.169,19.136-12.914,17.97-25.911-1-11.216-10.458-19.832-23.823-20.016-29.554-.409-59.107-.1-88.661-.2-4.462,0-6.14,1.576-6.14,6.14C68.456,90.094,68.313,105.464,68.333,120.814Z" transform="translate(-35.73 -36.84)" fill="#80bce0"/>
      </g>
      <path id="Path_4046" data-name="Path 4046" d="M72.039,72.167c.675-9.21.675-18.256,2.047-27.1C78.179,19.732,101.572.371,127.83,0c25.645-.348,50.2,19.259,54.3,44.371a199.816,199.816,0,0,1,1.535,30.557c.184,28.653,0,57.306,0,85.959,0,15.37-7.347,22.841-22.513,22.841q-53.4,0-106.815-.123A55.075,55.075,0,0,1,48.441,73.866C56.239,72.945,64.1,72.7,72.039,72.167ZM151.1,99.695V55.712c0-13.324-9.763-23.086-22.656-23.168-13.221-.1-23.025,9.722-23.168,23.393v34.9c0,10.561-3.807,14.327-14.163,14.327H70.176c-6.508,0-13.16-.573-19.484.553-12.2,2.251-19.2,13-17.97,25.993,1,11.216,10.458,19.832,23.844,20.016,29.533.409,59.087.1,88.641.2,4.462,0,6.14-1.576,6.14-6.14C150.978,130.415,151.121,115.045,151.1,99.695Z" transform="translate(672.611 675.676)" fill="#fff"/>
    </g>
  </g>
</svg>
