<svg xmlns="http://www.w3.org/2000/svg" width="55.673" height="57.001">
    <defs>
        <style>
            .b{fill:rgba(93,154,201,.4)}.c{fill:rgba(93,154,201,.2)}.d{fill:rgba(93,154,201,.6)}
        </style>
    </defs>
    <g opacity=".25">
        <path class="b"
            d="M54.231 23.924l-5.55-5.872-7.174.076.095 13.5h5.758v-7.775zM31.865 1.561l5.871 5.551-.071 7.174-13.5-.095V8.433h7.778z" />
        <path class="c" d="M31.943 31.57h5.6l.122-13.518-13.5.094v5.759h7.778z" />
        <path class="d"
            d="M41.506 14.285s7.889-.036 9.855 0 5.211-2.256 4.078-5.654-5.664-2.832-5.664-2.832.642-4.493-2.567-5.551a4.24 4.24 0 00-5.7 4.04c.074 2.606-.002 9.997-.002 9.997z" />
        <g>
            <path class="b"
                d="M1.442 33.074l5.55 5.871 7.175-.071-.095-13.5H8.314v7.778zM23.808 55.439l-5.871-5.551.071-7.174 13.5.095v5.758H23.73z" />
            <path class="c" d="M23.73 25.43h-5.6l-.122 13.518 13.5-.094v-5.759H23.73z" />
            <path class="d"
                d="M14.169 42.714s-7.891.037-9.857 0S-.899 44.97.234 48.368s5.664 2.833 5.664 2.833-.642 4.493 2.567 5.551a4.24 4.24 0 005.704-4.038c-.077-2.608 0-10 0-10z" />
        </g>
    </g>
</svg>