<svg xmlns="http://www.w3.org/2000/svg" width="43.667" height="43.667" viewBox="0 0 43.667 43.667">
    <defs>
        <style>.a{fill:#f1f8fb;}</style>
    </defs>
    <path class="a"
        d="M23.833,2A21.833,21.833,0,1,0,45.667,23.833,21.841,21.841,0,0,0,23.833,2Zm0,6.55a6.55,6.55,0,1,1-6.55,6.55A6.541,6.541,0,0,1,23.833,8.55Zm0,31a15.721,15.721,0,0,1-13.1-7.03c.066-4.345,8.733-6.725,13.1-6.725,4.345,0,13.034,2.38,13.1,6.725A15.721,15.721,0,0,1,23.833,39.553Z"
        transform="translate(-2 -2)" />
</svg>