<svg xmlns="http://www.w3.org/2000/svg" width="66" height="66"><g fill="#f1f8fb"><path d="M33 65.5a32.392 32.392 0 01-22.981-9.519A32.392 32.392 0 01.5 33a32.392 32.392 0 019.519-22.981A32.392 32.392 0 0133 .5a32.392 32.392 0 0122.981 9.519A32.392 32.392 0 0165.5 33a32.392 32.392 0 01-9.519 22.981A32.392 32.392 0 0133 65.5z"/><path d="M33 1a31.895 31.895 0 00-22.627 9.373A31.895 31.895 0 001 33a31.895 31.895 0 009.373 22.627A31.895 31.895 0 0033 65a31.894 31.894 0 0022.627-9.373A31.894 31.894 0 0065 33a31.895 31.895 0 00-9.373-22.627A31.895 31.895 0 0033 1m0-1c18.225 0 33 14.775 33 33S51.225 66 33 66 0 51.225 0 33 14.775 0 33 0z" fill="#3ec2b0"/></g><path d="M13.75 13.75h38.5v38.5h-38.5z" fill="none"/><path d="M27.364 41.42l-7.66-8.745-2.554 2.915 10.214 11.66L49.25 22.265l-2.553-2.915z" fill="#3ec2b0"/></svg>