<svg xmlns="http://www.w3.org/2000/svg" viewBox="0 0 28.33 75.1"><g data-name="Layer 2"><g data-name="Layer 1"><path d="M28.06 27.44c-.22 3.91-1 16.34-2.53 22S22.37 59.16 21 64.85c-1.22 5.06-2.1 7.94-2.36 10H2.29c.21-3.47-.15-14.52 0-17.69.06-3.37-.89-9.16-1.42-13.91a60.28 60.28 0 01.53-14.86A80.55 80.55 0 002.55 16a21.87 21.87 0 00-1.37-8C.54 6.67.38 2.88.27.93.27.7.26.49.25.32L26.48.25s0 .13.06.21a1.21 1.21 0 010 .19 1.34 1.34 0 010 .28c-.31 3.39-1.47 7.1-.8 10 .73 3.07 2.53 12.61 2.32 16.51z" stroke="#215182" stroke-linejoin="bevel" stroke-width=".5" fill="#fbfbfb"/><path d="M4.66 8a6.63 6.63 0 00.87 2.53c.43.78 1 1.48 1.4 2.36a2.54 2.54 0 01.15 1.46 12.66 12.66 0 00-.16 1.33 3.27 3.27 0 00.91 2.4 3.41 3.41 0 01-.93-1 3.26 3.26 0 01-.37-1.37c-.07-.95.32-1.88-.06-2.6s-.92-1.53-1.29-2.38A5.17 5.17 0 014.66 8z" fill="#215182"/><path d="M6.61 23.65v19" fill="none" stroke-linecap="round" stroke="#215182" stroke-linejoin="bevel" stroke-width=".5"/></g></g></svg>