<svg xmlns="http://www.w3.org/2000/svg" viewBox="0 0 37.81 43.71"><defs><style>.cls-2{fill:#215182}</style></defs><g id="Layer_2" data-name="Layer 2"><g id="Layer_1-2" data-name="Layer 1"><path d="M37.23 21.83c-.94 1.82-2.44 1-3.55-.94a45.42 45.42 0 00-3.09-5.07 7.08 7.08 0 00-4.33-2.2c0 1.89-.72 21.09-.8 24.33s-3.71 2.69-3.95.08-.23-9.33-.39-11.62-2.77-3.07-3 .25-.94 10-1.42 14.3-4.43 2.37-4.27-.39.71-13.76.87-15.26-1.19 5.3-1.19 6.48-.79 7-.79 8.46-3.47 1.34-3.55-2A142.54 142.54 0 019 23.65c.4-3-1.81.47-2.76 2a30.94 30.94 0 00-2.85 6.79c-.55 2-3.16 1.35-3.16-1a34.29 34.29 0 012.53-9.87c.79-1.35 2.68-5 2.68-6.64s.33-6.4 1.43-8.78c.74-1.6 2.18-3.47 2.93-4.78.14-.25.39-.86.48-1h14.14l.11.1.08.09.12.13c.12.14.17.19.34.36 1.29 1.22 3.27 1.1 4.56 3 1.59 2.38 4.82 8.3 6 10.43s2.55 5.52 1.6 7.35z" fill="#fbfbfb" stroke="#215182" stroke-linecap="round" stroke-linejoin="bevel" stroke-width=".5" id="Rectangle_2028" data-name="Rectangle 2028"/><path class="cls-2" d="M20.21 3.93a16.7 16.7 0 00-.35 3.22 14.78 14.78 0 00.31 3.18 15.78 15.78 0 002.57 5.85 11 11 0 01-1.94-2.64 11.93 11.93 0 01-1.12-3.11 11.34 11.34 0 01.53-6.5zM23.05 17.68c-1-.14-2.05-.33-3.06-.53s-2-.46-3-.59c-2-.34-4.08-.58-6.15-.85a28.9 28.9 0 016.23.35 26.33 26.33 0 013 .72c1 .28 2 .56 2.98.9z"/></g></g></svg>