<svg xmlns="http://www.w3.org/2000/svg" viewBox="0 0 28.26 52.93"><g data-name="Layer 2"><g data-name="Layer 1"><path d="M27.17 45.59A5.82 5.82 0 0125 43.66c1 1.31 1.74 2.43 1.5 3.18-.36 1.14-1.55 1.83-2.28 1.48s-1.6-2-3.3-4c1.58 2.39 2.78 4 2.31 5.26s-2.5 1.48-3.32 1-1.32-3.65-1.78-5.14c.52 2.66 1.34 5.54 1.11 6.16a.78.78 0 01-.26.34 2.85 2.85 0 01-1.22.6h-1.34a1.89 1.89 0 01-.71-.35 2 2 0 01-.3-.25c-.94-.86-.53-1.5-1-3s-2.2-3.15-4-4.8C11.75 46 14.07 48.43 14 51a1.63 1.63 0 01-.38 1 2.15 2.15 0 01-1.08.6 6.7 6.7 0 01-2.82 0 6.37 6.37 0 01-1.58-.46L7.89 52c-1.07-.74-2.22-2.66-3-3.47S2 47.18.73 44.8s.33-5.46.82-7.23.88-8.09 1.24-11.77 1.42-6.16 1.67-9.8a25.28 25.28 0 00-.63-7.73 32.51 32.51 0 01-1-4.88c0-.91.87-2.3 1.27-3.1l16.34.07c.11 2.33 1.61 6.1.63 9.43s.07 16.14 1.2 19.26 2.08 3.14 2.24 4.63-.16 3.57.64 4.55 4.49 6.1 2.02 7.36z" fill="#fbfbfb" stroke="#215182" stroke-linejoin="bevel" stroke-width=".5" data-name="Rectangle 2030"/></g></g></svg>