<svg xmlns="http://www.w3.org/2000/svg" viewBox="0 0 28.31 52.97"><g data-name="Layer 2"><path d="M27.49 45.28c-1.37 2.33-3.48 2.64-4.33 3.48s-2.2 3-3.37 3.48l-.34.12a7.25 7.25 0 01-4.47 0 1.58 1.58 0 01-1-1.49c0-2.53 2.42-4.85 3.89-6.64-1.89 1.58-3.58 3.05-4.21 4.64s-.1 2.22-1.47 3.16a2.19 2.19 0 01-.8.33h-1a2.4 2.4 0 01-1.72-1.07c-.22-.63.74-3.48 1.37-6.11-.54 1.47-1.17 4.63-2 5.06s-2.85.11-3.27-1.17.84-2.83 2.53-5.16c-1.8 2-2.74 3.59-3.48 3.9S2 47.39 1.66 46.24c-.2-.75.62-1.83 1.63-3.09A6 6 0 011 45c-2.42-1.37 1.48-6.33 2.32-7.27s.64-3.06.85-4.54 1.16-1.46 2.42-4.53 2.85-15.8 2-19.17c-.75-3 0-6.29.34-8.6C9 .64 9 .44 9 .25l16.85.14c.07.15.43 1 .53 1.23a4 4 0 01.68 2.14 33.29 33.29 0 01-1.16 4.85 25.88 25.88 0 00-.95 7.7c.11 3.68 1.06 6.21 1.26 9.9s.32 10 .74 11.8 1.91 4.99.54 7.27z" fill="#fbfbfb" stroke="#215182" stroke-linejoin="bevel" stroke-width=".5" data-name="Layer 1"/></g></svg>