<svg xmlns="http://www.w3.org/2000/svg" viewBox="0 0 31.06 75.03"><g data-name="Layer 2"><g data-name="Layer 1"><path d="M30.76.86c-.3 2.43-2.06 6.39-2.06 7.64s.32 6.23-.94 8.86.11 8.44.63 11.8-1.48 21.08-2.11 26.45-1.05 10.65-.63 14.22c.29 2.48.58 4.14.74 5H9.67A122.83 122.83 0 007.74 60C7 56.88 2.58 45.08 2 42.54S.25 26.74.25 23.15s2.64-7.9 2.42-11.58C2.49 8.2 3 3.35 3 .86V.47a.81.81 0 000-.22h27.81a4.68 4.68 0 01-.05.61z" stroke="#215182" stroke-linejoin="bevel" stroke-width=".5" fill="#fbfbfb"/><path d="M25.65 6.51a5.11 5.11 0 01-.87 2.6c-.46.8-1.13 1.48-1.57 2.21S23 13 22.82 13.88a3.33 3.33 0 01-.54 1.32 3.66 3.66 0 01-1.06.9 3.31 3.31 0 001.22-2.27v-1.34a2.54 2.54 0 01.34-1.43c.52-.82 1.16-1.43 1.69-2.16a6.94 6.94 0 001.18-2.39z" fill="#215182"/><path d="M21.49 23v19" fill="none" stroke-linecap="round" stroke="#215182" stroke-linejoin="bevel" stroke-width=".5"/></g></g></svg>