<svg xmlns="http://www.w3.org/2000/svg" viewBox="0 0 37.8 44.03"><defs><style>.cls-2{fill:#215182}</style></defs><g id="Layer_2" data-name="Layer 2"><g id="Layer_1-2" data-name="Layer 1"><path d="M37.55 31.71c0 2.37-2.6 3.09-3.16 1a30.09 30.09 0 00-2.85-6.8c-.94-1.5-3.15-5-2.76-2a142 142 0 011.27 14.62c-.08 3.31-3.56 3.4-3.56 2s-.79-7.27-.79-8.46-1.34-8-1.19-6.48.72 12.48.88 15.25-3.8 4.66-4.27.39-1.19-11-1.43-14.3-2.85-2.53-3-.24-.16 9-.39 11.62-3.88 3.16-4-.09-.8-22.44-.8-24.33a7.09 7.09 0 00-4.34 2.21 46.16 46.16 0 00-3.04 5.1C3 23.09 1.51 24 .57 22.15s.4-5.3 1.57-7.43 4.44-8.06 6-10.43c1.4-2.1 3.77-1.52 5-3.09a8.65 8.65 0 00.59-.93h15.08l.21-.07h.2a.87.87 0 010 .1 30.34 30.34 0 001.63 6.07c1.12 2.37 1.43 7.11 1.43 8.77s1.89 5.3 2.68 6.64a33.89 33.89 0 012.59 9.93z" fill="#fbfbfb" stroke="#215182" stroke-linecap="round" stroke-linejoin="bevel" stroke-width=".5"/><path class="cls-2" d="M18.5 3.69a11.51 11.51 0 01.53 6.5 11.83 11.83 0 01-1.13 3.11 10.74 10.74 0 01-1.9 2.64 16.11 16.11 0 002.57-5.85 16.1 16.1 0 00.31-3.18 17.62 17.62 0 00-.38-3.22zM15.65 17.45c1-.34 2-.63 3-.91a24.53 24.53 0 013.05-.71 28.78 28.78 0 016.22-.36c-2.06.27-4.11.51-6.15.85-1 .14-2 .4-3 .59s-2.08.4-3.12.54z"/></g></g></svg>