<svg xmlns="http://www.w3.org/2000/svg" viewBox="0 0 43.77 68.97"><g data-name="Layer 2"><g data-name="Layer 1"><path d="M43.52.25v68.44H.25c.12-4.26.75-19.63 1.43-23.61.8-4.43 3.79-14.08 3.64-17.55S7.06 17.41 6.9 13.62C6.78 10.78 5.23 4.06 4.45.86c-.06-.22-.1-.43-.14-.61z" fill="#fbfbfb" stroke="#215182" stroke-linejoin="bevel" stroke-width=".5"/><path d="M4.53 33.38A50.81 50.81 0 0115 40.64a55.32 55.32 0 014.6 4.46c1.46 1.57 2.78 3.25 4.11 4.91q3.95 5 7.79 10.14l3.83 5.11c.32.42.63.87 1 1.26a5.83 5.83 0 001.22 1 11.79 11.79 0 002.93 1.22 11.62 11.62 0 01-3-1.12 5.75 5.75 0 01-1.3-1c-.38-.39-.69-.81-1-1.23l-4-5a588.98 588.98 0 00-7.83-10.07C22 48.65 20.73 47 19.3 45.41s-2.95-3-4.52-4.48-3.22-2.78-4.92-4.06a41.06 41.06 0 00-5.33-3.49z" fill="#215182"/></g></g></svg>