<svg xmlns="http://www.w3.org/2000/svg" viewBox="0 0 49.52 60.05"><g data-name="Layer 2"><path d="M44 41.27c-.5 2-.53 5.07-2.93 8a4.64 4.64 0 01-.36.44c-2.77 3.12-6.25 9.29-14 10a15.46 15.46 0 01-1.65 0c-6.78-.18-10.73-5.34-12.17-6.8a25 25 0 01-4-4.94h0a8.91 8.91 0 01-1.37-4.17c-2.28 4.47-11.28-13-5.26-13.71C.42 17.68 4.68 10.89 8 6.92S18 .41 25.06.27h.63C33 .25 35 1.84 39.43 5.56s6.17 9.57 6.86 11.66.82 7.1.3 11.78c6.09-3.67.31 15.18-2.59 12.27z" fill="#fbfbfb" stroke="#215182" stroke-linejoin="bevel" stroke-width=".5" data-name="Layer 1"/></g></svg>