<svg xmlns="http://www.w3.org/2000/svg" viewBox="0 0 53.84 80.67"><defs><style>.cls-2{fill:#215182}</style></defs><g id="Layer_2" data-name="Layer 2"><g id="Layer_1-2" data-name="Layer 1"><path d="M53.59.35v80.07H14c0-.12-.06-.21-.09-.29a.17.17 0 000-.07v-.08c-.12-.84-.32-2.1-.55-3.57-.08-.58-.18-1.21-.29-1.85 0-.16-.05-.32-.07-.49-.09-.48-.16-1-.24-1.47 0-.13 0-.25-.06-.38-.1-.62-.21-1.25-.32-1.87-.2-1.23-.42-2.43-.63-3.51-1.05-5.48-.63-12.32 0-18.65A38.17 38.17 0 0011 35.7c.09.09.17.19.27.3-.85-3.31-1.59-6.61-2-8.46-.74-3.62-1-5.2-1.8-8.33a27 27 0 00-2.37-6.75A21.16 21.16 0 00.19 7.1c2.49-2.95 9-5.15 12-6.85z" style="isolation:isolate" fill="#fbfbfb" stroke="#215182" stroke-linejoin="bevel" stroke-width=".5"/><path class="cls-2" d="M11.28 34c1.07 1.16 2.17 2.29 3.28 3.41s2.21 2.23 3.37 3.29 2.29 2.19 3.82 2.5a32.38 32.38 0 004.62.83 62.72 62.72 0 009.39.57 43.44 43.44 0 004.7-.29 20 20 0 002.32-.38 5.54 5.54 0 002.15-.9 5.64 5.64 0 01-2.12 1 22.83 22.83 0 01-2.32.51 46.49 46.49 0 01-4.72.43 60 60 0 01-9.47-.46 34.31 34.31 0 01-4.67-.89 5.68 5.68 0 01-2.17-1.08A20.83 20.83 0 0117.67 41a89.72 89.72 0 01-6.39-7zM53.59 57.51V58a3.81 3.81 0 00-2.52.56 6.18 6.18 0 00-1.82 2.83 36.42 36.42 0 01-3.18 6.37 36.55 36.55 0 01-9.89 10.14 37.56 37.56 0 005.26-4.74 35.68 35.68 0 004.3-5.59 38.81 38.81 0 003.09-6.35 6.5 6.5 0 012-3 4.27 4.27 0 012.76-.71zM28.07 1.83a24 24 0 004.26.63 15.19 15.19 0 004.25-.4 15 15 0 014.34-.56 11.32 11.32 0 014.22 1.06 14.27 14.27 0 00-4.23-.67 16.55 16.55 0 00-4.22.65 14 14 0 01-4.38.3 16.1 16.1 0 01-4.24-1.01zM53.59 4.11v.49a4.54 4.54 0 01-3.18-2 5.82 5.82 0 003.18 1.51z"/></g></g></svg>