<svg xmlns="http://www.w3.org/2000/svg" viewBox="0 0 20.71 73.77"><g data-name="Layer 2"><path d="M2.12 56.46c.74-5.37-.84-20.54-1.69-27.81S1.69 7.78 4.86 2.72A23.5 23.5 0 016.7.19a21.22 21.22 0 014.91 5.37A27.83 27.83 0 0114 12.31c.85 3.13 1.06 4.7 1.79 8.33.38 1.85 1.12 5.15 2 8.45l-.27-.3a38.19 38.19 0 01.73 12.49c-.63 6.33-1.06 13.18 0 18.65.2 1.08.42 2.28.63 3.52.11.62.22 1.25.31 1.87 0 .13 0 .25.06.37.09.5.16 1 .25 1.48 0 .17.05.33.07.48.1.65.21 1.26.29 1.86.23 1.46.42 2.72.55 3.56v.09a.15.15 0 010 .07 2.54 2.54 0 000 .29h-20c.41-2.75 1.02-12 1.71-17.06z" style="isolation:isolate" fill="#fbfbfb" stroke="#215182" stroke-linejoin="bevel" stroke-width=".5" data-name="Layer 1"/></g></svg>