<svg xmlns="http://www.w3.org/2000/svg" viewBox="0 0 44.89 95.73"><g data-name="Layer 2"><path d="M44.64.25V14.6v-.07c-.46 4.21-1.37 18.61-1.37 24.3 0 5.86-.48 17.24-.63 22.13s-.48 12.5-.32 18c.09 3.09.52 6.61.81 10a48.91 48.91 0 01.21 6.4l-27.7.14c.12-.61.11-1.33.17-1.93.78-7.3-2-14.39-4.55-21.8-.14-.45-.3-.89-.45-1.34-.34-1-.66-2-1-3-3-10-9-45.36-9.47-49.48C0 14.44.88 4.1 1.2.86c0-.25 0-.45.06-.61z" fill="#fbfbfb" stroke="#215182" stroke-linecap="round" stroke-linejoin="bevel" stroke-width=".5" data-name="Layer 1"/></g></svg>