<svg xmlns="http://www.w3.org/2000/svg" viewBox="0 0 21.36 80.38"><g data-name="Layer 2"><path d="M2.67 59.81a135.57 135.57 0 00-.32-16.13c-.25-1.56-.51-3.61-.66-5 0-.49-.08-1-.1-1.46a98.16 98.16 0 01.54-18C3.42 10.08 5.7 5 6.35 3.53c.14-.27.27-.57.41-.84.43-.84.89-1.69 1.29-2.44h0c.28.12 2.21 1 2.84 1.32a13.9 13.9 0 015.15 4.7c1.24 2.41 3.16 13.82 3.58 18.24s.63 17.17.43 21.18-.74 24.56-.74 27.18c0 2.11 1.3 5.87 1.8 7.26H.24c.7-3.23 2.22-17.31 2.43-20.32z" fill="#B6E0F8" stroke="#215182" stroke-linejoin="bevel" stroke-width=".5" data-name="Layer 1"/></g></svg>