<svg xmlns="http://www.w3.org/2000/svg" viewBox="0 0 43.2 68.94"><g data-name="Layer 2"><g data-name="Layer 1"><path d="M42.93 68.67H.25V.25h34.44c0 .19 0 .4-.07.61-.46 3.9-1.62 9.14-1.44 11.81.15 3 3 13 1.89 17.71 2.21 2 4.12 10.59 4.9 14.22.74 3.4 3.19 18.14 2.96 24.07z" fill="#B6E0F8" stroke="#215182" stroke-linejoin="bevel" stroke-width=".5"/><path d="M5 68.72a10.16 10.16 0 004.46-4.17A51.53 51.53 0 0012.15 59a98.6 98.6 0 015.89-11c2.16-3.6 5.15-6.59 8-9.59a103.14 103.14 0 019-8.6 50.73 50.73 0 00-4.46 4.34q-2.16 2.23-4.28 4.52c-2.81 3.07-5.75 6-7.86 9.59a109.76 109.76 0 00-6 10.91 48.57 48.57 0 01-2.83 5.57A10.21 10.21 0 015 68.72z" fill="#215182"/></g></g></svg>