<svg xmlns="http://www.w3.org/2000/svg" viewBox="0 0 84.48 26.88"><g data-name="Layer 2"><path d="M84.4 26.63l-42.63-.14-41.68-.14c5.76-2.17 16.91-6.27 19.17-7.49s6-3.35 7.81-5.25a28 28 0 00-.32-6.49 70.4 70.4 0 00-1.11-7 25 25 0 004 4.94C31 6.53 35 11.69 41.77 11.87a15.46 15.46 0 001.65 0c7.79-.7 11.27-6.87 14-10a4.64 4.64 0 00.36-.44l-.66 11.2c1.06.77 4.94 3.46 6.89 4.7 2.16 1.37 6.57 3.37 7.17 3.68a83.83 83.83 0 0013.22 5.62z" fill="#B6E0F8" stroke="#215182" stroke-linejoin="bevel" stroke-width=".5" data-name="Layer 1"/></g></svg>