<svg xmlns="http://www.w3.org/2000/svg" viewBox="0 0 163.41 445.37"><defs><style>.cls-1,.cls-3,.cls-5{fill:#fbfbfb}.cls-1,.cls-3,.cls-5,.cls-6,.cls-7{stroke:#215182}.cls-1,.cls-3,.cls-4,.cls-5,.cls-6,.cls-7{stroke-linejoin:bevel;stroke-width:.5px}.cls-2{fill:#215182}.cls-3{isolation:isolate}.cls-4,.cls-6,.cls-7{fill:none}.cls-4{stroke:#ccc}.cls-5,.cls-7{stroke-linecap:round}</style></defs><g id="Layer_2" data-name="Layer 2"><g id="Layer_1-2" data-name="Layer 1"><path class="cls-1" d="M83.86 154.6v68.45H40.58c.12-4.29.72-19.65 1.43-23.64.8-4.42 3.8-14.07 3.64-17.55s1.74-10.12 1.59-13.91c-.12-2.84-1.68-9.56-2.45-12.76-.06-.22-.11-.42-.15-.61z"/><path class="cls-2" d="M44.86 187.74A50.71 50.71 0 0155.37 195a62.44 62.44 0 014.6 4.46c1.45 1.58 2.77 3.26 4.11 4.92q3.94 5 7.78 10.14l3.83 5.11c.33.42.63.87 1 1.25a5.59 5.59 0 001.23 1 10.94 10.94 0 002.93 1.22 11.18 11.18 0 01-3-1.11 6.36 6.36 0 01-1.29-1c-.39-.4-.7-.82-1-1.23l-4-5c-2.62-3.36-5.21-6.74-7.86-10.06-1.33-1.67-2.63-3.35-4.06-4.92s-3-3-4.52-4.48-3.21-2.78-4.92-4.05a39.09 39.09 0 00-5.34-3.51z"/><path class="cls-3" d="M83.86 74.51v80.07H44.28c0-.12-.06-.21-.09-.29a.17.17 0 000-.07v-.08c-.12-.84-.32-2.1-.55-3.57-.08-.58-.18-1.21-.29-1.85 0-.16 0-.32-.07-.49-.09-.48-.16-1-.24-1.47 0-.13 0-.25-.06-.38-.1-.62-.21-1.25-.32-1.87-.2-1.23-.42-2.43-.63-3.51-1-5.48-.63-12.32 0-18.65a38.17 38.17 0 00-.73-12.49l.27.3c-.85-3.31-1.59-6.61-2-8.46-.74-3.62-1-5.2-1.8-8.33a27 27 0 00-2.42-6.75 21.16 21.16 0 00-4.91-5.36c2.49-3 9-5.15 11.95-6.85z"/><path class="cls-2" d="M41.55 108.15c1.07 1.16 2.17 2.3 3.28 3.41s2.21 2.24 3.37 3.3 2.29 2.18 3.83 2.5a33.42 33.42 0 004.61.83 64.08 64.08 0 009.39.57c1.57 0 3.14-.11 4.7-.29a20.05 20.05 0 002.32-.39 5.39 5.39 0 002.15-.9 5.36 5.36 0 01-2.12 1 20.42 20.42 0 01-2.32.51 43.79 43.79 0 01-4.72.43 58.8 58.8 0 01-9.47-.45 32.88 32.88 0 01-4.67-.9 5.73 5.73 0 01-2.17-1.07c-.64-.5-1.22-1-1.79-1.58a91.71 91.71 0 01-6.39-6.97zm42.31 23.52v.5a3.81 3.81 0 00-2.52.56 6.18 6.18 0 00-1.82 2.83 34.46 34.46 0 01-13.07 16.5 37.56 37.56 0 005.26-4.74 35.68 35.68 0 004.3-5.59 38.81 38.81 0 003.09-6.35 6.5 6.5 0 012-3 4.27 4.27 0 012.76-.71zM58.34 76a22.24 22.24 0 004.27.63 14.79 14.79 0 004.24-.4 15.34 15.34 0 014.34-.55 11.13 11.13 0 014.22 1.06 14.28 14.28 0 00-4.23-.74 16.56 16.56 0 00-4.18.7 13.73 13.73 0 01-4.38.29 15.35 15.35 0 01-4.28-.99zm25.52 2.27v.49a4.54 4.54 0 01-3.18-2 5.82 5.82 0 003.18 1.51z"/><path class="cls-4" d="M97 56.21l-.02.45"/><path class="cls-1" d="M126.49 74.56l-42.63-.14-41.68-.14c5.76-2.17 16.91-6.27 19.17-7.49s6-3.35 7.81-5.25a28 28 0 00-.32-6.49 70.4 70.4 0 00-1.11-7 25 25 0 004 4.94c1.44 1.46 5.39 6.62 12.17 6.8a15.46 15.46 0 001.65 0c7.79-.7 11.27-6.87 14-10a4.64 4.64 0 00.36-.44l-.66 11.2c1.06.77 4.94 3.46 6.89 4.7 2.16 1.37 6.57 3.37 7.17 3.68a83.83 83.83 0 0013.18 5.63z"/><path class="cls-1" d="M102.84 41.27c-.5 2-.53 5.07-2.93 8a4.64 4.64 0 01-.36.44c-2.77 3.12-6.25 9.29-14 10a15.46 15.46 0 01-1.65 0c-6.78-.18-10.73-5.34-12.17-6.8a25 25 0 01-4-4.94 8.91 8.91 0 01-1.37-4.17c-2.28 4.47-11.28-13-5.26-13.71-1.87-12.49 2.39-19.28 5.67-23.25S76.76.41 83.86.27h.63c7.31 0 9.32 1.59 13.74 5.31s6.17 9.57 6.86 11.66.82 7.1.3 11.78c6.09-3.69.31 15.16-2.55 12.25z"/><path class="cls-4" d="M41.15 108.16c0-.21-.09-.39-.12-.57m.12.57A1.58 1.58 0 0141 108M28.86 222.5v-.01m121.06.11"/><path class="cls-1" d="M44.7 164.18c-.63 4.58-6.48 24.66-7.42 28.92s-8.33 24.34-8.11 30H13.8c-.17-3.95 2.38-18.12 3.56-24.74 1.27-7.12 1.11-22.62 2.21-31.62.82-6.7 3-10.17 4-11.5a3.34 3.34 0 01.34-.41 2.11 2.11 0 01.18-.2h20.4c0 .2.07.4.09.61a30.14 30.14 0 01.12 8.94zm105.43 58.89h-14.21c-.11-4.85-3.3-16.76-5.07-22.7-1.9-6.32-9-25.76-10.27-30.34-1.13-4.08-1.47-10.28-1.53-14.82v-.61l20.59-.12c.07.17.47 1.06.58 1.29 1.15 2.57 4.5 8.27 4.86 11.73.47 4.42 3.16 27.82 3.63 33.82.45 5.68.61 17.58 1.42 21.75z"/><path class="cls-1" d="M126.54 223H83.86v-68.4h34.44c0 .2 0 .4-.07.61-.47 3.9-1.59 9.14-1.45 11.81.16 3 3 13 1.89 17.71 2.22 2.05 4.12 10.59 4.91 14.23.74 3.43 3.19 18.14 2.96 24.04z"/><path class="cls-2" d="M88.61 223.07a10.1 10.1 0 004.46-4.17 53.29 53.29 0 002.69-5.59 97.86 97.86 0 015.89-11c2.16-3.6 5.15-6.59 8-9.59a104.65 104.65 0 019-8.6 52.19 52.19 0 00-4.46 4.34c-1.45 1.49-2.87 3-4.28 4.53-2.81 3.07-5.76 6-7.86 9.59a106.69 106.69 0 00-6 10.91 51.13 51.13 0 01-2.78 5.51 10.24 10.24 0 01-4.66 4.07z"/><path class="cls-5" d="M83.86 223v14.34-.07c-.46 4.22-1.37 18.62-1.37 24.31 0 5.85-.47 17.23-.63 22.13s-.47 12.49-.31 18c.08 3.09.52 6.6.81 10a52.67 52.67 0 01.21 6.4l-27.71.13a17.77 17.77 0 00.17-1.92c.79-7.3-2-14.39-4.54-21.81l-.49-1.36c-.34-1-.67-2-1-3-3-10-9-45.36-9.47-49.48-.4-3.44.53-13.78.84-17 0-.24.05-.45.06-.6zm43.74 15.57c-.47 4.9-7 36.9-9.5 48.52-2.23 10.28-5.45 22.82-4.69 30.9H87.2c-1.5-6.87.39-13.67.09-25.36-.17-6.53-1.51-17-1.82-24.42-.28-6.52-1.44-22.27-1.61-29.35V223h42.63v.51a.31.31 0 000 .09c.1 4.4 1.51 10.4 1.11 14.97z"/><path class="cls-1" d="M112.37 438a5.76 5.76 0 01-2.19-1.93c1 1.31 1.74 2.42 1.5 3.18-.36 1.14-1.55 1.83-2.28 1.47s-1.6-2-3.31-4c1.59 2.39 2.79 4 2.32 5.26s-2.5 1.48-3.32 1-1.32-3.65-1.78-5.14c.52 2.65 1.34 5.54 1.11 6.16a.78.78 0 01-.26.34 2.85 2.85 0 01-1.22.6h-1.32a1.89 1.89 0 01-.71-.35 2.81 2.81 0 01-.31-.25c-.93-.86-.52-1.51-1-3s-2.19-3.15-4-4.8c1.39 1.84 3.72 4.26 3.62 6.78a1.57 1.57 0 01-.37 1 2.2 2.2 0 01-1.08.6 6.7 6.7 0 01-2.82 0 6.37 6.37 0 01-1.58-.46l-.25-.14c-1.07-.74-2.22-2.66-3-3.47s-2.9-1.28-4.17-3.66.33-5.46.82-7.23.88-8.09 1.24-11.77 1.42-6.16 1.67-9.84a25.25 25.25 0 00-.63-7.73 33.42 33.42 0 01-1-4.89c0-.91.88-2.29 1.28-3.09l16.29.11c.11 2.33 1.61 6.1.62 9.43s.08 16.14 1.2 19.26 2.09 3.14 2.25 4.63-.16 3.57.64 4.55 4.51 6.15 2.04 7.38z" id="Rectangle_2030" data-name="Rectangle 2030"/><path class="cls-1" d="M79.81 437.42c-1.37 2.33-3.48 2.64-4.33 3.48s-2.2 3-3.37 3.48l-.33.12a7.28 7.28 0 01-4.48 0 1.58 1.58 0 01-1-1.49c0-2.54 2.43-4.85 3.89-6.64-1.87 1.63-3.55 3.05-4.19 4.63s-.11 2.21-1.48 3.16a2.13 2.13 0 01-.8.33h-1a2.4 2.4 0 01-1.72-1.07c-.22-.63.74-3.48 1.37-6.11-.53 1.47-1.16 4.63-2 5.06s-2.85.1-3.27-1.17.85-2.83 2.53-5.16c-1.79 2-2.74 3.59-3.48 3.9s-1.9-.42-2.21-1.57c-.21-.75.61-1.83 1.62-3.09a5.87 5.87 0 01-2.25 1.81c-2.43-1.37 1.47-6.32 2.31-7.27s.64-3.05.85-4.53 1.16-1.47 2.42-4.53 2.85-15.8 2-19.17c-.75-3 0-6.29.34-8.61 0-.21 0-.41.06-.6l16.83.14c.08.15.44 1 .53 1.23a3.94 3.94 0 01.69 2.14 32.93 32.93 0 01-1.17 4.85 25.53 25.53 0 00-.94 7.69c.11 3.69 1 6.22 1.26 9.91s.31 10 .74 11.8 1.95 4.96.58 7.28z"/><path class="cls-3" d="M126.64 74.7c-.4.73-.87 1.6-1.29 2.43.4-.83.84-1.68 1.26-2.45zM25.88 137.52c.74-5.37-.83-20.54-1.68-27.81s1.26-20.87 4.42-25.93a23.5 23.5 0 011.84-2.53 21.22 21.22 0 014.91 5.37 27.38 27.38 0 012.43 6.75c.84 3.13 1.05 4.7 1.79 8.33.38 1.85 1.11 5.15 2 8.45l-.26-.3a38.55 38.55 0 01.67 12.49c-.63 6.33-1 13.18 0 18.65.21 1.08.43 2.28.63 3.52.11.62.22 1.25.32 1.87 0 .13 0 .25.06.37l.24 1.48c0 .17.05.33.07.48.1.65.21 1.26.3 1.86.23 1.46.42 2.72.54 3.56v.09a.15.15 0 010 .07v.29h-20c.43-2.75 1.03-12 1.72-17.06z"/><path class="cls-6" d="M120.51 111.28c-.1.12-.21.26-.33.39m-.07.06v-.23"/><path class="cls-1" d="M121.25 134.26a135.59 135.59 0 00-.31-16.13c-.25-1.57-.51-3.61-.67-5 0-.48-.07-1-.09-1.45a97.38 97.38 0 01.54-18c1.29-9.16 3.56-14.28 4.22-15.7.13-.28.27-.57.41-.85.42-.83.89-1.7 1.29-2.43.28.12 2.2 1 2.83 1.32a13.58 13.58 0 015.15 4.7c1.25 2.41 3.17 13.81 3.59 18.24s.63 17.17.42 21.18-.73 24.55-.73 27.18c0 2.11 1.29 5.87 1.8 7.26h-20.87c.69-3.24 2.22-17.32 2.42-20.32z"/><path class="cls-1" d="M126.64 74.7c-.4.73-.87 1.6-1.29 2.43.4-.83.84-1.68 1.26-2.45z"/><path class="cls-6" d="M41.81 111.15c-.09-.33-.17-.66-.26-1m78.75 3.34a2.31 2.31 0 010-.37"/><path class="cls-3" d="M126.69 74.6v.1c-.43.76-.86 1.61-1.26 2.45-.15.27-.28.57-.41.84-.66 1.42-2.94 6.55-4.22 15.71a98 98 0 00-.55 18l-.06.06c0 .28.09.78.16 1.4.16 1.39.41 3.44.67 5a135.63 135.63 0 01.31 16.13c-.2 3-1.73 17.09-2.42 20.32h-35v-80.1z"/><path class="cls-2" d="M88.17 76.92a4.85 4.85 0 01-3.85 1.88 2.38 2.38 0 01-.46 0v-.49a3.71 3.71 0 00.47 0 6.28 6.28 0 003.84-1.39zm12.77 77.83l-.24-.17a29.59 29.59 0 01-5-4.59 25 25 0 01-2.12-2.87c-.63-1-1.22-2-1.82-3.05-1.2-2-2.35-4.12-3.37-6.27a12.6 12.6 0 01-.66-1.67 9.39 9.39 0 00-.68-1.59 4 4 0 00-2.51-2.07 4.67 4.67 0 00-.65-.13v-.49a4 4 0 01.78.13 4.51 4.51 0 012.8 2.32 10.65 10.65 0 01.7 1.68 11.93 11.93 0 00.63 1.63c1 2.13 2.15 4.2 3.29 6.27.58 1 1.16 2.07 1.76 3.08a25.9 25.9 0 002 2.88 29.87 29.87 0 004.86 4.74zm-12.78-38.62a12.22 12.22 0 004 1.74 26.89 26.89 0 004.26.9 26.14 26.14 0 004.34.18q2.19 0 4.38-.09c1.45 0 2.91-.11 4.35-.26a21.2 21.2 0 002.14-.32 5.07 5.07 0 002-.8 28.35 28.35 0 003.41-2.71c1.09-1 2.14-2 3.14-3a35.76 35.76 0 01-6.34 6.07 5.15 5.15 0 01-2.06.9 18.14 18.14 0 01-2.19.35c-1.46.17-2.92.25-4.39.31s-2.92 0-4.39 0a24.08 24.08 0 01-4.4-.26 27.56 27.56 0 01-4.28-1.05 12.06 12.06 0 01-3.97-1.96zm22.03-40.89a15.73 15.73 0 01-4.24 1 14 14 0 01-4.38-.3 16.12 16.12 0 00-4.22-.65 14 14 0 00-4.23.67 11.32 11.32 0 014.22-1.06 15.34 15.34 0 014.34.55 14.41 14.41 0 004.24.4 22.24 22.24 0 004.27-.61z"/><path class="cls-1" d="M82.49 318.79c-.3 2.43-2.06 6.39-2.06 7.64s.32 6.23-.94 8.86.1 8.43.63 11.8-1.48 21.08-2.12 26.45-1.06 10.65-.63 14.22c.29 2.47.58 4.14.74 4.95H61.38A120.78 120.78 0 0059.47 378c-.74-3.16-5.17-15-5.8-17.5S52 344.67 52 341.08s2.64-7.9 2.42-11.58c-.18-3.37.32-8.22.33-10.71v-.39a.81.81 0 000-.22h27.79c0 .18-.03.39-.05.61z"/><path class="cls-2" d="M77.38 324.44a5.2 5.2 0 01-.87 2.6c-.47.8-1.13 1.48-1.58 2.21s-.19 1.63-.39 2.56a3.17 3.17 0 01-.53 1.32A3.79 3.79 0 0173 334a3.3 3.3 0 001.21-2.27v-1.34a2.62 2.62 0 01.29-1.39c.53-.82 1.17-1.44 1.69-2.16a6.79 6.79 0 001.19-2.4z"/><path class="cls-7" d="M73.21 340.93v19"/><path class="cls-1" d="M115.05 345.3c-.22 3.9-1 16.34-2.53 22s-3.16 9.7-4.52 15.41c-1.21 5.05-2.1 7.94-2.35 10H89.28c.21-3.47-.15-14.52 0-17.7.11-3.36-.84-9.16-1.37-13.91a60.18 60.18 0 01.53-14.85 80.57 80.57 0 001.15-12.44 22 22 0 00-1.37-8c-.64-1.27-.8-5.06-.9-7v-.61l26.23-.07a1.56 1.56 0 01.06.21v.47c-.32 3.39-1.48 7.1-.8 10 .65 3 2.45 12.59 2.24 16.49z"/><path class="cls-2" d="M91.65 325.88a6.52 6.52 0 00.87 2.52c.43.79 1 1.49 1.4 2.36a2.56 2.56 0 01.15 1.46c-.06.47-.14.9-.16 1.33a3.25 3.25 0 00.92 2.4 3.4 3.4 0 01-.94-1 3.3 3.3 0 01-.37-1.37c-.07-.95.32-1.88-.06-2.6s-.92-1.53-1.28-2.38a5.18 5.18 0 01-.53-2.72z"/><path class="cls-7" d="M93.61 341.51v19"/><path class="cls-6" d="M83.86 222.99v-.16m-.04 14.8l.03-15.57m.01-67.46v-.02m0-80.08v-.08"/><path class="cls-5" d="M37.55 254.4c0 2.37-2.6 3.09-3.16 1a30.09 30.09 0 00-2.85-6.8c-.94-1.5-3.15-5-2.76-2a142.41 142.41 0 011.27 14.63c-.08 3.31-3.56 3.39-3.56 2s-.79-7.28-.79-8.46-1.34-8-1.19-6.49.72 12.49.88 15.26-3.8 4.65-4.27.39-1.19-11-1.43-14.3-2.85-2.53-3-.24-.16 9-.39 11.62-3.88 3.16-4-.09-.8-22.44-.8-24.33a7.09 7.09 0 00-4.34 2.21 46.16 46.16 0 00-3.09 5.06c-1.1 1.89-2.61 2.76-3.55 1s.4-5.3 1.57-7.43 4.44-8.06 6-10.44c1.4-2.09 3.77-1.51 5-3.09a7.63 7.63 0 00.59-.92h15.08l.21-.07h.2a.87.87 0 010 .1 30.34 30.34 0 001.63 6.07c1.12 2.37 1.43 7.11 1.43 8.77s1.89 5.3 2.68 6.64a33.81 33.81 0 012.64 9.91z"/><path class="cls-2" d="M18.5 226.38a11.51 11.51 0 01.53 6.5A11.83 11.83 0 0117.9 236a10.74 10.74 0 01-1.9 2.63 16.11 16.11 0 002.57-5.85 16.17 16.17 0 00.31-3.18 17.53 17.53 0 00-.38-3.22zm-2.85 13.75c1-.33 2-.62 3-.9a24.53 24.53 0 013.05-.71 28.78 28.78 0 016.22-.36c-2.06.27-4.11.51-6.15.85-1 .14-2 .4-3 .59s-2.08.4-3.12.53z"/><path class="cls-5" d="M162.84 244.52c-.94 1.82-2.44.95-3.55-.94a45.42 45.42 0 00-3.09-5.07 7.15 7.15 0 00-4.33-2.21c0 1.9-.72 21.1-.8 24.34s-3.71 2.69-4 .08-.23-9.33-.38-11.62-2.77-3.08-3 .24-.94 10-1.42 14.3-4.43 2.38-4.27-.38.71-13.76.87-15.26-1.19 5.29-1.19 6.48-.79 7-.79 8.46-3.47 1.33-3.55-2a142.29 142.29 0 011.26-14.61c.4-3-1.81.47-2.76 2a31.23 31.23 0 00-2.85 6.8c-.55 2.05-3.16 1.35-3.16-1a34 34 0 012.53-9.87c.79-1.35 2.68-5 2.68-6.64s.33-6.4 1.43-8.78c.74-1.6 2.18-3.48 2.93-4.79.14-.24.39-.86.48-1l14.14-.05.11.1.08.09.12.12a3.6 3.6 0 00.34.37c1.29 1.22 3.27 1.1 4.56 3 1.59 2.37 4.82 8.3 6 10.43s2.56 5.59 1.61 7.41z" id="Rectangle_2028" data-name="Rectangle 2028"/><path class="cls-2" d="M145.82 226.62a16.69 16.69 0 00-.35 3.21 14.72 14.72 0 00.31 3.18 15.75 15.75 0 002.57 5.86 10.83 10.83 0 01-1.94-2.65 11.74 11.74 0 01-1.12-3.1 11.34 11.34 0 01.53-6.5zm2.84 13.75c-1-.14-2-.33-3.07-.53s-2-.46-3-.59c-2-.34-4.08-.59-6.15-.85a28.9 28.9 0 016.23.35 26.29 26.29 0 013 .71c1.01.28 2.01.54 2.99.91z"/></g></g></svg>