<svg xmlns="http://www.w3.org/2000/svg" viewBox="0 0 43.32 80.57"><defs><style>.cls-2{fill:#215182}</style></defs><g id="Layer_2" data-name="Layer 2"><g id="Layer_1-2" data-name="Layer 1"><path d="M43.08.34v.1h0c-.43.76-.86 1.61-1.26 2.45-.15.27-.28.57-.41.84-.66 1.42-2.94 6.55-4.22 15.71a98 98 0 00-.55 18l-.06.06c0 .28.09.78.16 1.4.16 1.39.41 3.44.67 5a135.63 135.63 0 01.23 16.1c-.2 3-1.73 17.09-2.42 20.32H.25V.25z" style="isolation:isolate" fill="#B6E0F8" stroke="#215182" stroke-linejoin="bevel" stroke-width=".5"/><path class="cls-2" d="M4.56 2.66A4.64 4.64 0 012.87 4a4.6 4.6 0 01-2.16.5 2.38 2.38 0 01-.46 0V4a3.71 3.71 0 00.47 0 6.28 6.28 0 003.84-1.34zM17.33 80.49l-.24-.17a29.59 29.59 0 01-5-4.59 25 25 0 01-2.12-2.87c-.63-1-1.22-2-1.82-3-1.2-2-2.35-4.12-3.37-6.27a12.6 12.6 0 01-.66-1.67 9.39 9.39 0 00-.68-1.59A4 4 0 00.9 58.21a4.67 4.67 0 00-.65-.13v-.49a4 4 0 01.78.13A4.51 4.51 0 013.83 60a10.65 10.65 0 01.7 1.68 11.93 11.93 0 00.63 1.63c1 2.13 2.15 4.2 3.29 6.27.58 1 1.16 2.07 1.76 3.08a25.9 25.9 0 002 2.88 29.87 29.87 0 004.86 4.74zM4.55 41.87a12.19 12.19 0 004 1.75 29.89 29.89 0 004.26.9 28.62 28.62 0 004.35.18c1.46 0 2.92 0 4.37-.1s2.92-.11 4.36-.25A19 19 0 0028 44a5.21 5.21 0 002-.77 29.38 29.38 0 003.41-2.71c1.09-1 2.14-2 3.14-3.05a35.82 35.82 0 01-6.34 6.08 5.2 5.2 0 01-2.06.89 20.81 20.81 0 01-2.19.36c-1.46.16-2.92.25-4.39.3s-2.93 0-4.39 0a24.07 24.07 0 01-4.4-.25 28.74 28.74 0 01-4.28-1 12.28 12.28 0 01-3.95-1.98zM26.58 1a16.19 16.19 0 01-4.24 1A14 14 0 0118 1.71a16.14 16.14 0 00-4.22-.66 14.34 14.34 0 00-4.24.68A11 11 0 0113.73.67a14.65 14.65 0 014.34.55 14.75 14.75 0 004.24.4A23.17 23.17 0 0026.58 1z"/></g></g></svg>