<svg xmlns="http://www.w3.org/2000/svg" viewBox="0 0 44.79 96.65"><defs><style>.cls-2{fill:#215182}</style></defs><g id="Layer_2" data-name="Layer 2"><g id="Layer_1-2" data-name="Layer 1"><path d="M.26.5v23.93c.53 6 1.83 10.75 2.15 15.89.89 14.64 1.87 21 1.73 25.05C4.05 67.74 2.93 77.63 3 83.64a47.65 47.65 0 001.92 12.68l24.49.08c0-.88.2-8.31.23-8.47.12-1.09 3.89-19.22 4.93-23.59h0v0c.78-3.25 4.56-19.66 4.75-20.52C43.15 26.17 44.55 8.41 44.52 2V.26z" fill="#B6E0F8" stroke="#215182" stroke-miterlimit="10" stroke-width=".5"/><path class="cls-2" d="M.64 1.78a13.18 13.18 0 006.44 5 21.43 21.43 0 008.18.79 39.14 39.14 0 008.2-1.15 46 46 0 007.86-2.72 37.17 37.17 0 01-7.76 3.09A36.32 36.32 0 0115.28 8 20.84 20.84 0 017 7.12 12.72 12.72 0 013.33 5 13.74 13.74 0 01.64 1.78zM10.78 83.16a18.43 18.43 0 01.57 5.18 18.91 18.91 0 01-.25 2.6 15.92 15.92 0 01-.61 2.54c.16-1.73.32-3.44.36-5.15s0-3.43-.07-5.17zM22.59 80.22c0 1.15-.14 2.29-.25 3.42s-.22 2.27-.26 3.41-.08 2.28-.08 3.42v3.43a32.93 32.93 0 01-.41-6.9 23.21 23.21 0 01.41-3.4c.15-1.13.34-2.27.59-3.38z"/></g></g></svg>