<svg xmlns="http://www.w3.org/2000/svg" viewBox="0 0 32.21 70"><g data-name="Layer 2"><g data-name="Layer 1"><path d="M16.11 69.75a31.89 31.89 0 01.51-3.87c.31-1.58 1.85-7.25 2.14-8.6.17-.72.34-1.47.53-2.24.1-.43.21-.87.32-1.3q.3-1.32.66-2.67c.12-.44.23-.89.35-1.34l.38-1.36c.12-.44.24-.9.36-1.35s.26-.91.38-1.36c.39-1.46.82-2.92 1.23-4.33.19-.63.37-1.26.55-1.87.12-.38.24-.77.35-1.15 0 0 0 0 0 0 .49-1.59 1-3.08 1.42-4.46.29-.89.56-1.74.84-2.53C29.58 21.31 31.58 6 31.9 1.48v-.27c0-.25.05-.77.05-.93L8.89.57c-.06.18-.11.38-.17.57 0 0 0 0 0 0a.24.24 0 000 .09C6.47 8.67 4.86 17.52 4.56 31.61c0 .77 0 1.57-.06 2.38-.08 2.42-.22 5-.38 7.52v.05c-.21 3.13-.46 6.31-.74 9.33C2.81 57 .31 69.4.29 69.47z" fill="#B6E0F8" stroke="#215182" stroke-miterlimit="10" stroke-width=".5"/><path d="M25.34 6.6a7.49 7.49 0 01-4.16 3.51 7.55 7.55 0 01-5.44-.19A9.94 9.94 0 0021 9.63a9.84 9.84 0 004.34-3.03z" fill="#215182"/></g></g></svg>