<svg xmlns="http://www.w3.org/2000/svg" viewBox="0 0 27.79 75.98"><g data-name="Layer 2"><path d="M6.85 75.35l18.62.38c0-.18.21-3.68.17-5.27 0-.28-.29-4.72-.32-5.06s-.08-.68-.13-1-.08-.69-.13-1-.09-.73-.13-1.11c-.07-.76-.12-1.57-.15-2.42v-3.63c0-.7.93-10.07.93-10.07s2.62-26.34 1.52-31.55c-1-4.71-1-14.26-1-14.26h-25S-.14 15.79.36 22.3c.77 10.2 3.26 17.1 4.76 23C6.74 51.62 7.54 56.68 7.59 57a55.41 55.41 0 01-.78 18.39" fill="#B6E0F8" stroke="#215182" stroke-miterlimit="10" stroke-width=".5" data-name="Layer 1"/></g></svg>