<svg xmlns="http://www.w3.org/2000/svg" viewBox="0 0 25.31 81.72"><g data-name="Layer 2"><path d="M24.57 77.37a40.27 40.27 0 01-1.17 3.92l-23 .18C2.11 78.65 5 69.79 4.17 63.93c0-.23-.06-.49-.08-.74s0-.53-.08-.82c-.08-1-.12-2.21-.14-3.48v-1.26c-.08-6.31.31-14.47.19-19.42v-1.84c-.42-6.1.84-18.11 2.31-24.73 1.3-5.84 3.09-8.35 6.37-10.23.31-.18.64-.35 1-.52C10 4.51 15.43 27.65 19.73 38c3 7.21 3.37 18.23 4.12 25.48a2 2 0 000 .25.66.66 0 010 .14c.22 2 .47 3.74.69 5.21a.19.19 0 010 .08c.09.66.18 1.27.25 1.82v.23c.06.61.11 1.17.12 1.65a10.56 10.56 0 00.09 1.2 10.64 10.64 0 01-.43 3.31z" fill="#fbfbfb" stroke="#215182" stroke-miterlimit="10" stroke-width=".5" data-name="Layer 1"/></g></svg>