<svg xmlns="http://www.w3.org/2000/svg" viewBox="0 0 42.27 68.89"><g data-name="Layer 2"><path d="M.26 68.64h41.76V.25L8.4.29c0 .23.19 18.42-.85 23.78-.12.6-.27 1.21-.45 1.87 0 .17-.09.35-.14.53a.17.17 0 010 .07v.12c-.2.74-.46 1.53-.71 2.34-.21.64-.42 1.31-.65 2-.47 1.41-1 2.9-1.44 4.45a.06.06 0 010 0h0a48.53 48.53 0 00-1 3.73c-.12.48-.24 1-.34 1.45-.19.9-.37 1.79-.5 2.71 0 .18-.06.38-.09.57-.06.39-.11.78-.14 1.18C1.19 52.65.12 64.94.26 68.64z" fill="#fbfbfb" stroke="#215182" stroke-miterlimit="10" stroke-width=".5" data-name="Layer 1"/></g></svg>