<svg xmlns="http://www.w3.org/2000/svg" viewBox="0 0 45.35 50.13"><g data-name="Layer 2"><path d="M45 31.56c-.53 1.69-2.74 7.16-4.41 9.15a3.34 3.34 0 01-4.06 1.12c0 .11-.06.22-.08.32A70.83 70.83 0 0027.77 47c-2.76 1.82-3.79 2.8-5.7 2.84a8.84 8.84 0 01-1 0c-1.77-.16-3.22-.87-5.67-2.81S9 42.14 7.15 41.8a6.14 6.14 0 01-2.19-2 87.15 87.15 0 01-4.62-7.61c-.49-1.28 1-2.43 2.36-2.56a35.66 35.66 0 01-1.42-15.75C2.33 7.56 7.57 4.08 11.88 2 14 .92 17.6.4 21.13.28a33.5 33.5 0 019.1.75 17.63 17.63 0 0112.59 12.64c1.49 5.5.66 11.28-.85 16 1.2-.25 3.56.33 3.03 1.89z" fill="#fbfbfb" stroke="#215182" stroke-linejoin="round" stroke-width=".5" data-name="Layer 1"/></g></svg>