<svg xmlns="http://www.w3.org/2000/svg" viewBox="0 0 44.22 81"><g data-name="Layer 2"><g data-name="Layer 1"><path d="M41.64 30.18A154.16 154.16 0 0037.37 52v-.16.33l-.59 8.21v.17c-.16 1.59-.33 3.22-.49 4.77 0 .54-.11 1.07-.15 1.59-.27 2.75-.47 5.1-.47 6.32 0 1 0 2.1-.09 3.16V78.86l-.06.86c0 .4-.05.75-.07 1H.25V.25H42.6c3.1 10.95.11 26.15-.96 29.93z" fill="#fbfbfb" stroke="#215182" stroke-miterlimit="10" stroke-width=".5"/><path d="M18.52 10.92a10.91 10.91 0 00-.79 3.52c-.11 1.21-.2 2.41-.22 3.63-.08 2.42-.08 4.84 0 7.27v3.64a14.79 14.79 0 00.33 3.58 17.32 17.32 0 001.1 3.44 9.91 9.91 0 001.94 3 13 13 0 01-3.43-6.38A13.65 13.65 0 0117 29v-3.65c0-2.44 0-4.87.16-7.3.07-1.22.19-2.43.36-3.64a11.15 11.15 0 011-3.49z" fill="#215182"/></g></g></svg>