<svg xmlns="http://www.w3.org/2000/svg" viewBox="0 0 47.59 82.02"><defs><style>.cls-2{fill:#215182}</style></defs><g id="Layer_2" data-name="Layer 2"><g id="Layer_1-2" data-name="Layer 1"><path d="M47.34.25v80.5H13.71a67.87 67.87 0 00-.33-4.2c-.06-.58-.12-1.19-.2-1.81 0-.36-.09-.72-.13-1.1-.12-1-.25-2-.39-3v-.23c-.07-.55-.16-1.16-.25-1.82a.19.19 0 000-.08c-.11-.85-.23-1.68-.33-2.45 0-.34-.09-.68-.13-1 0-.13 0-.25-.05-.36v-.35a1.8 1.8 0 010-.22L11.65 63c-.75-7.25-1.13-18.27-4.12-25.48C3.23 27.11-2.18 4 1.43.33L1.6.25z" fill="#fbfbfb" stroke="#215182" stroke-miterlimit="10" stroke-width=".5"/><path class="cls-2" d="M26.53 10.92a10.89 10.89 0 011 3.49c.17 1.21.3 2.42.37 3.64.16 2.43.16 4.86.16 7.3L28 29a14.05 14.05 0 01-.41 3.65A13 13 0 0124.17 39a9.73 9.73 0 001.94-3 16.69 16.69 0 001.12-3.42 15.31 15.31 0 00.34-3.58v-3.64-7.27c0-1.22-.11-2.42-.23-3.63a10.66 10.66 0 00-.81-3.54zM47.2 82l-.48-11.45-.38-11.45-.26-11.46Q46 41.95 46 36.21c.2 3.82.38 7.64.52 11.45l.37 11.46.26 11.45c.01 3.82.1 7.64.05 11.43z"/></g></g></svg>