<svg xmlns="http://www.w3.org/2000/svg" viewBox="0 0 23.62 80.61"><g data-name="Layer 2"><path d="M23.28 80.3l-21.4.06c-.17-1.67-1-5.48-1.46-9.49-.36-3-.09-8.16.18-12.7 0-.3.05-.6.08-.91C.87 55.11 1 53.22 1 52a154.16 154.16 0 014.28-21.82c1.07-3.78 4.06-19 1-29.93h.11l1.43.6A23 23 0 0114.31 5l.14.15a15.61 15.61 0 013.6 5c3 6.74 1.46 24.21 1.57 26.74s1.67 14.5 2.2 17.11c.44 2.25-.32 15.35.86 23.44a17.75 17.75 0 00.6 2.86z" fill="#fbfbfb" stroke="#215182" stroke-miterlimit="10" stroke-width=".5" data-name="Layer 1"/></g></svg>