<svg xmlns="http://www.w3.org/2000/svg" viewBox="0 0 25.9 53.15"><defs><style>.cls-2{fill:#215182}</style></defs><g id="Layer_2" data-name="Layer 2"><g id="Layer_1-2" data-name="Layer 1"><path d="M.88 41.82c.7 2.59.42 4.6.56 7.11a3.24 3.24 0 001.5 2.77 6.61 6.61 0 001.31.6c.32.13.63.22.88.33a4.94 4.94 0 004-.33 1.95 1.95 0 00.87-1.71 9.85 9.85 0 00-2.46-6.41c1.89 1.59 2.07 2.77 2.69 4.35a7 7 0 002.6 3.17l.37.28a1.94 1.94 0 00.81.32h1a2.82 2.82 0 001.33-.6 1.11 1.11 0 00.37-.46c.22-.63-2.25-4.82-2.88-7.45.52 1.47 2.68 6 3.52 6.4s2.83.1 3.25-1.17-.83-2.84-2.52-5.15c1.78 2 2.74 3.58 3.46 3.89s1.89-.42 2.21-1.58c.2-.75-.62-1.82-1.62-3.08a5.88 5.88 0 002.24 1.82c2.42-1.37 1-6.32.11-7.26s-.62-3-.84-4.53a11 11 0 00-1.21-4.53c-.83-2-1.8-8.27-2.11-13.25-.07-1-.11-2-.11-2.87a13.39 13.39 0 01.23-3c.82-3.29-1-6.72-1.29-9L3.05.25A8.83 8.83 0 002 3.76 33.06 33.06 0 003.2 8.6a25.25 25.25 0 01.94 7.69C4 20 3.09 22.5 2.88 26.18s-2 8.09-2.47 9.88a13.4 13.4 0 00.47 5.76z" fill="#fbfbfb" stroke="#215182" stroke-miterlimit="10" stroke-width=".5"/><path class="cls-2" d="M19.32 16.16a13.67 13.67 0 00-.15-3.67A11.79 11.79 0 0018.07 9a9.53 9.53 0 00-2.15-2.88 8.92 8.92 0 00-3.09-1.78A9.1 9.1 0 009.3 3.8 5.29 5.29 0 006 5a5.39 5.39 0 00-1.67 3.1 9.48 9.48 0 000 3.64 9.74 9.74 0 01-.22-3.69 5.7 5.7 0 011.7-3.32 5.48 5.48 0 013.47-1.38 9.52 9.52 0 013.72.56 9.35 9.35 0 013.24 1.92 9.41 9.41 0 012.19 3 12.7 12.7 0 01.89 7.33zM2.56 31.7a9.38 9.38 0 013-2.11A7.41 7.41 0 019.29 29 4.57 4.57 0 0011 29a3.78 3.78 0 001.49-.85 9.06 9.06 0 002-3 7.29 7.29 0 01-1.7 3.28 3.84 3.84 0 01-1.62 1 5.12 5.12 0 01-1.9.11 7.77 7.77 0 00-3.53.46 12.55 12.55 0 00-3.18 1.7z"/><path class="cls-2" d="M18.69 9.9c-.39-.84-.71-1.71-1-2.57s-.6-1.74-.87-2.62a37.57 37.57 0 01-.39-3.87 37.63 37.63 0 01.82 3.76c.3.87.57 1.75.82 2.64s.46 1.76.62 2.66zM6.57 1.2C6.36 1.81 6.18 2.41 6 3s-.41 1.21-.63 1.8S5 6 4.8 6.59a16.7 16.7 0 01-.68 1.78c.07-.63.19-1.25.31-1.88a14.74 14.74 0 01.47-1.85c.23-.6.47-1.19.74-1.77L6.05 2c.17-.26.32-.54.52-.8zM4.62 15.37A7 7 0 006 17.27a6.38 6.38 0 001.87 1.27 10.4 10.4 0 004.56.72 7.13 7.13 0 01-2.39.28A6.54 6.54 0 017.63 19a5.57 5.57 0 01-2-1.47 5.13 5.13 0 01-1.01-2.16z"/></g></g></svg>