<svg xmlns="http://www.w3.org/2000/svg" viewBox="0 0 31.56 68.94"><g data-name="Layer 2"><g data-name="Layer 1"><path d="M1.39 15.54c.18.64.43 1.5.77 2.55l.35 1.11c.19.61.41 1.28.64 2 .12.39.25.78.39 1.19v.09l.24.73c.36 1.09.74 2.26 1.14 3.49.32 1 .65 2 1 3.06a.21.21 0 000 .07l.7 2.2c.12.38.24.76.35 1.13s.25.79.37 1.19c0 .13.1.28.14.42s0 0 0 0c.25.79.49 1.6.75 2.41l.45 1.52c.15.46.29.93.43 1.4.19.65.39 1.31.59 2s.38 1.31.56 2c.1.33.19.66.28 1 .19.66.38 1.31.54 1.95s.34 1.19.5 1.78c.1.36.19.73.29 1.1s.18.7.28 1 .14.56.2.84c.42 1.63.8 3.23 1.14 4.74.06.33.13.66.2 1s.13.64.19 1c0 .07 0 .16.05.23A2.14 2.14 0 0114 59c.15.73.28 1.43.38 2.12.08.49.15 1 .21 1.45a3.32 3.32 0 01.06.44 7.75 7.75 0 01.1.93l.06.64v.29a2.66 2.66 0 010 .28v1.71a.71.71 0 010 .15v.79c0 .1 0 .29-.06.42a3.82 3.82 0 01-.11.51l16.54-.23v-.12a1 1 0 010-.17 1.1 1.1 0 010-.18c-.14-.69-.27-1.6-.41-2.69a1.72 1.72 0 010-.24v-.31c-.09-.77-.2-1.6-.31-2.51-.07-.56-.14-1.16-.2-1.78-.09-.77-.19-1.59-.27-2.42-.05-.41-.1-.82-.13-1.25v-.22 0c0-.22-.05-.44-.07-.65-.1-.9-.19-1.82-.28-2.76s-.19-1.9-.29-2.88c0-.53-.09-1.07-.14-1.6-.21-2.1-.41-4.24-.59-6.35l-.18-2c0-.67-.11-1.32-.17-2s-.09-1-.12-1.53-.08-.78-.1-1.17-.07-.76-.1-1.15c-.06-.75-.12-1.5-.18-2.21 0-.3 0-.59-.07-.9-.11-1.46-.2-2.85-.3-4.14 0-.26 0-.52-.05-.76 0-.8-.1-1.55-.14-2.24s-.06-1.06-.09-1.55 0-1-.06-1.46v-.34-1.39a41.32 41.32 0 00-4.4-17.86L21.79.25.32.29c0 .19 0 .4.06.6V1a1.34 1.34 0 010 .21c.13 3.31-.81 7.68 1.01 14.33z" fill="#fbfbfb" stroke="#215182" stroke-miterlimit="10" stroke-width=".5"/><path d="M5.45 6.07a9.92 9.92 0 004.32 3 10 10 0 005.28.28 7.58 7.58 0 01-9.6-3.31z" fill="#215182"/></g></g></svg>