<svg xmlns="http://www.w3.org/2000/svg" viewBox="0 0 53.53 77.27"><g data-name="Layer 2"><g data-name="Layer 1"><path d="M26.07 39.72c.14.58.29 1.2.42 1.85.23 1 .43 2.19.61 3.4.11.68.22 1.37.32 2.09.13 1 .26 2.09.37 3.18.11.94.21 1.91.28 2.87a92.9 92.9 0 01.33 11.06c0 1.08-.11 2.07-.21 3 0 .22-.06.44-.08.65-.14 1-.25 1.82-.32 2.59a25.46 25.46 0 00-.15 4.77v.2a3 3 0 00.06.39H44v-.6a1.21 1.21 0 010-.17v-.49c0-1.33 0-3.52.2-7.16v-.5a.92.92 0 010-.16c0-.23 0-.49.07-.74s.09-.69.14-1.07c0-.18 0-.37.08-.56s0-.32.07-.48.08-.44.12-.69c.2-1.17.44-2.45.73-3.82.06-.27.11-.55.17-.83.18-.83.36-1.69.56-2.57.11-.48.22-1 .34-1.46s.24-1.08.38-1.62c.19-.86.39-1.72.61-2.61.3-1.27.62-2.55.92-3.83 0-.11.06-.22.08-.33.13-.57.28-1.15.42-1.72.34-1.43.69-2.87 1-4.29.13-.56.27-1.12.4-1.68s.26-1.15.4-1.72l.36-1.55c.66-2.94 1.23-5.67 1.63-8 .07-.42.13-.83.19-1.22.12-.8.22-1.53.28-2.19 0-.32.05-.61.07-.89s0-.62 0-.9c0-7.59-2-21.58-2-21.58h-24.5c0 .19-.86 7.34-2 12.46-1.17 5.76-.55 19.5 1.35 26.92zm-25.82 36z" fill="#fbfbfb" stroke="#215182" stroke-miterlimit="10" stroke-width=".5" data-name="Rectangle 2035"/></g></g></svg>