<svg xmlns="http://www.w3.org/2000/svg" viewBox="0 0 25.93 53.69"><defs><style>.cls-2{fill:#215182}</style></defs><g id="Layer_2" data-name="Layer 2"><g id="Layer_1-2" data-name="Layer 1"><path d="M1.86 45.42A5.69 5.69 0 004 43.85C3 45 2.27 46 2.44 46.7c.27 1.17 1.4 1.95 2.15 1.65s1.74-1.82 3.59-3.77c-1.76 2.26-3.08 3.79-2.7 5.08s2.36 1.66 3.21 1.27 1.59-3.53 2.16-5a56.64 56.64 0 00-1.59 5.82.75.75 0 000 .23.86.86 0 00.26.39 2.72 2.72 0 003.18.48 2.52 2.52 0 00.45-.35 1.7 1.7 0 00.46-.59c.27-.56.24-1.18.67-2.18.69-1.55 1.32-4.76 3.26-6.27-.46 2.67-1.8 5.91-1.88 8.43a.34.34 0 000 .1 1.45 1.45 0 00.1.61c.61 1.49 3.58.63 4.75.17l.15-.05a4.61 4.61 0 00.87-.51 7.08 7.08 0 002.58-3.4c.28-1.16-.27-3.24-.35-5.46-.09-2.69 1.27-4 1.65-5.74a8.71 8.71 0 00-.12-4.48.42.42 0 010-.06c-.33-1-.75-2.06-1.17-3.22a40.48 40.48 0 01-2.31-12.41A25.42 25.42 0 0123 9.8 33 33 0 0024.35 5c.11-1.14-.88-3.32-1.32-4.21L4.72.26C3.39 4 5.13 6.88 5.8 10.05a7.63 7.63 0 01.14 1.25h0c.19 4.56-1.56 15.11-2.8 17.81-1.35 3-1 4.62-1.22 6.07s0 4.65-.85 5.56a3 3 0 00.79 4.68z" fill="#fbfbfb" stroke="#215182" stroke-miterlimit="10" stroke-width=".5"/><path class="cls-2" d="M21.66 12.39a10.16 10.16 0 00.18-3.06 6.11 6.11 0 00-.95-2.83 4.91 4.91 0 00-2.27-1.83 6.73 6.73 0 00-2.93-.4 10.18 10.18 0 00-5.59 2.05 10.6 10.6 0 00-3.37 5A9.83 9.83 0 019.85 6a10.27 10.27 0 015.81-2.24 7 7 0 013.13.47 5.06 5.06 0 012.42 2.07 7.54 7.54 0 01.45 6.09zM24.08 32.15a13.13 13.13 0 00-3.26-1.64 8.24 8.24 0 00-3.56-.29 5 5 0 01-1.92 0 3.9 3.9 0 01-1.67-1A7.42 7.42 0 0111.83 26a9 9 0 002.09 2.95 3.8 3.8 0 001.54.8 4.9 4.9 0 001.75 0 7.42 7.42 0 013.73.42 9.56 9.56 0 013.14 1.98z"/><path class="cls-2" d="M22 10a15.39 15.39 0 00-.08-2.36 11.5 11.5 0 00-.51-2.27 9.8 9.8 0 00-1-2.09 9.25 9.25 0 00-1.51-1.81 6.66 6.66 0 013 3.74A8.16 8.16 0 0122 10zM6.94 10.14a44.93 44.93 0 011.73-4.63c.35-.74.6-1.52.94-2.27s.65-1.51 1-2.25c-.19.81-.43 1.6-.67 2.38a23 23 0 01-.81 2.33 43.53 43.53 0 01-2.19 4.44zM19.08 15.56A5.2 5.2 0 0118 17.68a5.5 5.5 0 01-2 1.39 6.38 6.38 0 01-2.39.45 6.75 6.75 0 01-2.37-.36 10.3 10.3 0 004.57-.55 6.4 6.4 0 001.92-1.2 7.2 7.2 0 001.35-1.85z"/></g></g></svg>